<svg xmlns="http://www.w3.org/2000/svg" viewBox="0 0 400 400" preserveAspectRatio="xMidYMid slice" role="img" aria-label="תרבות">
<defs>
<linearGradient id="sky" x1="0" y1="0" x2="0" y2="1"><stop offset="0" stop-color="#2e1f5c"/><stop offset="0.75" stop-color="#6a49b3"/><stop offset="1" stop-color="#8a5ad0"/></linearGradient>
<linearGradient id="skyDeep" x1="0" y1="0" x2="0" y2="1"><stop offset="0" stop-color="#2e1f5c"/><stop offset="1" stop-color="#4b3290"/></linearGradient>
<radialGradient id="glow"><stop offset="0" stop-color="#fff" stop-opacity="0.6"/><stop offset="1" stop-color="#fff" stop-opacity="0"/></radialGradient>
<radialGradient id="warm"><stop offset="0" stop-color="#ffd27a" stop-opacity="0.7"/><stop offset="1" stop-color="#ffd27a" stop-opacity="0"/></radialGradient>
<linearGradient id="beam" x1="0" y1="0" x2="0" y2="1"><stop offset="0" stop-color="#fff" stop-opacity="0.4"/><stop offset="1" stop-color="#fff" stop-opacity="0"/></linearGradient></defs>
<rect width="400" height="400" fill="url(#skyDeep)"/>
<path d="M200 40 96 300H304Z" fill="url(#beam)"/>
<path d="M0 0h400v58q-100 26-200 0t-200 0Z" fill="#b8324f"/>
<path d="M0 0h86v400H0Z" fill="#8e2540"/><path d="M314 0h86v400h-86Z" fill="#8e2540"/>
<g stroke="#6e1a31" stroke-width="5" opacity="0.55"><path d="M22 60v340M52 60v340M348 60v340M378 60v340"/></g>
<path d="M86 60q20 120 0 240" stroke="#ffd27a" stroke-width="4" fill="none" opacity="0.4"/><path d="M314 60q-20 120 0 240" stroke="#ffd27a" stroke-width="4" fill="none" opacity="0.4"/>
<path d="M86 280H314v40H86Z" fill="#2e1f5c"/><ellipse cx="200" cy="282" rx="96" ry="12" fill="#fff" opacity="0.28"/>
<path d="M200 162l10 26h28l-22 16 8 27-24-16-24 16 8-27-22-16h28Z" fill="#ffd27a"/>
<circle cx="146" cy="206" r="3" fill="#fff" opacity="0.8"/><circle cx="258" cy="184" r="3" fill="#fff" opacity="0.8"/><circle cx="236" cy="246" r="2.4" fill="#fff" opacity="0.8"/><circle cx="168" cy="250" r="2" fill="#fff" opacity="0.8"/>
<g fill="#000" opacity="0.45"><circle cx="110" cy="360" r="22"/><circle cx="160" cy="366" r="22"/><circle cx="210" cy="360" r="22"/><circle cx="260" cy="366" r="22"/><circle cx="305" cy="360" r="22"/><path d="M80 372h250v40H80Z"/></g>
</svg>
