<svg xmlns="http://www.w3.org/2000/svg" viewBox="0 0 480 300" role="img" aria-label="The Bucket List">
  <defs>
    <linearGradient id="gHeroBg" x1="0" y1="0" x2="0" y2="300" gradientUnits="userSpaceOnUse">
      <stop offset="0" stop-color="#2c2350"/>
      <stop offset="0.55" stop-color="#46307d"/>
      <stop offset="1" stop-color="#8a6fd6"/>
    </linearGradient>
    <radialGradient id="gHeroGlow" cx="0.5" cy="0.2" r="0.6">
      <stop offset="0" stop-color="#fef1cf" stop-opacity="0.35"/>
      <stop offset="1" stop-color="#fef1cf" stop-opacity="0"/>
    </radialGradient>
  </defs>
  <rect width="480" height="300" fill="url(#gHeroBg)"/>
  <rect width="480" height="300" fill="url(#gHeroGlow)"/>
  <g fill="#ffffff" opacity="0.65">
    <circle cx="70" cy="40" r="1.6"/>
    <circle cx="120" cy="70" r="1.2"/>
    <circle cx="360" cy="35" r="1.6"/>
    <circle cx="410" cy="60" r="1.2"/>
    <circle cx="260" cy="30" r="1.2"/>
    <circle cx="60" cy="100" r="1.2"/>
  </g>
  <path d="M0 210 C 120 180, 360 180, 480 210 L480 300 L0 300 Z" fill="#3a2870" opacity="0.55"/>
  <path d="M0 225 C 120 200, 360 200, 480 225 L480 300 L0 300 Z" fill="#241b3a" opacity="0.6"/>
  <g transform="translate(210,196)" opacity="0.95">
    <path d="M0 30 C -2 8 8 -6 20 -6 C 30 -6 38 2 38 14 C 38 26 30 32 22 32 Z" fill="#f3edff"/>
    <path d="M40 30 C 38 6 50 -10 64 -10 C 76 -10 86 0 86 14 C 86 26 76 32 66 32 Z" fill="#efe9fb"/>
    <circle cx="20" cy="4" r="7" fill="#f3edff"/>
    <circle cx="65" cy="0" r="7.5" fill="#efe9fb"/>
  </g>
  <path d="M228 150 c-8 -8 -20 -2 -20 8 c0 9 20 22 20 22 s20 -13 20 -22 c0 -10 -12 -16 -20 -8 z" fill="#ffe1e9" opacity="0.9"/>
</svg>
